HIERARCHY
ROOT Hips
{
	OFFSET 0.000000 0.000000 0.000000
	CHANNELS 6 Xposition Yposition Zposition Zrotation Yrotation Xrotation 
	JOINT LHipJoint
	{
		OFFSET 0.000000 0.000000 0.000000
		CHANNELS 3 Zrotation Yrotation Xrotation
		JOINT LeftUpLeg
		{
			OFFSET 1.363060 -1.794630 0.839290
			CHANNELS 3 Zrotation Yrotation Xrotation
			JOINT LeftLeg
			{
				OFFSET 2.448110 -6.726130 0.000000
				CHANNELS 3 Zrotation Yrotation Xrotation
				JOINT LeftFoot
				{
					OFFSET 2.562200 -7.039590 0.000000
					CHANNELS 3 Zrotation Yrotation Xrotation
					JOINT LeftToeBase
					{
						OFFSET 0.157640 -0.433110 2.322550
						CHANNELS 3 Zrotation Yrotation Xrotation
						End Site
						{
							OFFSET 0.000000 0.000000 0.000000
						}
					}
				}
			}
		}
	}
	JOINT RHipJoint
	{
		OFFSET 0.000000 0.000000 0.000000
		CHANNELS 3 Zrotation Yrotation Xrotation
		JOINT RightUpLeg
		{
			OFFSET -1.305520 -1.794630 0.839290
			CHANNELS 3 Zrotation Yrotation Xrotation
			JOINT RightLeg
			{
				OFFSET -2.542530 -6.985550 0.000000
				CHANNELS 3 Zrotation Yrotation Xrotation
				JOINT RightFoot
				{
					OFFSET -2.568260 -7.056230 0.000000
					CHANNELS 3 Zrotation Yrotation Xrotation
					JOINT RightToeBase
					{
						OFFSET -0.164730 -0.452590 2.363150
						CHANNELS 3 Zrotation Yrotation Xrotation
						End Site
						{
							OFFSET 0.000000 0.000000 0.000000
						}
					}
				}
			}
		}
	}
	JOINT LowerBack
	{
		OFFSET 0.000000 0.000000 0.000000
		CHANNELS 3 Zrotation Yrotation Xrotation
		JOINT Spine
		{
			OFFSET 0.028270 2.035590 -0.193380
			CHANNELS 3 Zrotation Yrotation Xrotation
			JOINT Spine1
			{
				OFFSET 0.056720 2.048850 -0.042750
				CHANNELS 3 Zrotation Yrotation Xrotation
				JOINT Neck
				{
					OFFSET 0.000000 0.000000 0.000000
					CHANNELS 3 Zrotation Yrotation Xrotation
					JOINT Neck1
					{
						OFFSET -0.054170 1.746240 0.172020
						CHANNELS 3 Zrotation Yrotation Xrotation
						JOINT Head
						{
							OFFSET 0.104070 1.761360 -0.123970
							CHANNELS 3 Zrotation Yrotation Xrotation
							End Site
							{
								OFFSET 0.000000 0.000000 0.000000
							}
						}
					}
				}
				JOINT LeftShoulder
				{
					OFFSET 0.000000 0.000000 0.000000
					CHANNELS 3 Zrotation Yrotation Xrotation
					JOINT LeftArm
					{
						OFFSET 3.362410 1.200890 -0.311210
						CHANNELS 3 Zrotation Yrotation Xrotation
						JOINT LeftForeArm
						{
							OFFSET 4.983000 -0.000000 -0.000000
							CHANNELS 3 Zrotation Yrotation Xrotation
							JOINT LeftHand
							{
								OFFSET 3.483560 -0.000000 -0.000000
								CHANNELS 3 Zrotation Yrotation Xrotation
								JOINT LeftFingerBase
								{
									OFFSET 0.000000 0.000000 0.000000
									CHANNELS 3 Zrotation Yrotation Xrotation
									JOINT LeftHandIndex1
									{
										OFFSET 0.715260 -0.000000 -0.000000
										CHANNELS 3 Zrotation Yrotation Xrotation
										End Site
										{
											OFFSET 0.000000 0.000000 0.000000
										}
									}
								}
								JOINT LThumb
								{
									OFFSET 0.000000 0.000000 0.000000
									CHANNELS 3 Zrotation Yrotation Xrotation
									End Site
									{
										OFFSET 0.000000 0.000000 0.000000
									}
								}
							}
						}
					}
				}
				JOINT RightShoulder
				{
					OFFSET 0.000000 0.000000 0.000000
					CHANNELS 3 Zrotation Yrotation Xrotation
					JOINT RightArm
					{
						OFFSET -3.136600 1.374050 -0.404650
						CHANNELS 3 Zrotation Yrotation Xrotation
						JOINT RightForeArm
						{
							OFFSET -5.241900 -0.000000 -0.000000
							CHANNELS 3 Zrotation Yrotation Xrotation
							JOINT RightHand
							{
								OFFSET -3.444170 -0.000000 -0.000000
								CHANNELS 3 Zrotation Yrotation Xrotation
								JOINT RightFingerBase
								{
									OFFSET 0.000000 0.000000 0.000000
									CHANNELS 3 Zrotation Yrotation Xrotation
									JOINT RightHandIndex1
									{
										OFFSET -0.622530 -0.000000 -0.000000
										CHANNELS 3 Zrotation Yrotation Xrotation
										End Site
										{
											OFFSET 0.000000 0.000000 0.000000
										}
									}
								}
								JOINT RThumb
								{
									OFFSET 0.000000 0.000000 0.000000
									CHANNELS 3 Zrotation Yrotation Xrotation
									End Site
									{
										OFFSET 0.000000 0.000000 0.000000
									}
								}
							}
						}
					}
				}
			}
		}
	}
}
MOTION
Frames: 8
Frame Time: 0.008333
2.407560 17.684202 -31.280647 4.706390 2.705821 1.285533 0.341270 2.684518 2.728189 -24.889036 -3.069532 10.115220 1.176568 7.763684 26.458714 1.509705 -5.582432 14.350119 1.301400 -7.227300 -20.390500 -1.709301 -2.079980 0.403023 15.633673 11.723978 -25.502469 -0.209950 -6.673058 18.193197 0.067064 -7.000738 17.740974 -0.122900 -2.260200 6.225400 -4.935494 -1.711285 5.269469 0.824415 -2.751308 -1.845428 5.686838 -1.227253 -3.181887 -8.201830 -2.382584 -10.556980 4.355880 -2.196329 13.313767 3.308700 -1.478900 9.077600 -7.543699 2.891999 -2.378655 -79.659278 -6.190484 21.090717 13.633870 -24.697691 -3.876795 -1.145285 -3.762271 7.759514 15.771785 27.644401 8.787900 -7.125000 0.000000 0.000000 -18.313700 61.695700 -7.581000 6.352618 -2.642123 -2.168232 82.721526 -10.280450 -8.186255 -8.983647 14.054118 -1.402510 1.221891 -0.713754 23.814607 -15.740241 5.974410 -1.877600 7.125000 0.000000 0.000000 7.080800 -23.607300 3.679700 
2.387677 17.691581 -31.064806 4.436497 2.530267 0.902093 0.155542 2.676263 2.893242 -24.303762 -3.291819 9.082539 1.643567 8.577779 28.989310 1.556263 -5.234349 17.287291 1.239400 -7.059500 -19.891700 -1.959629 -2.176727 0.589078 16.623147 11.403048 -25.387583 -0.394241 -7.060163 19.557859 -0.023594 -6.258534 17.499452 -0.165700 -2.622200 7.228600 -6.997839 -4.512439 5.559034 2.405898 -6.888306 -3.073041 11.638501 -2.671549 -6.457990 -12.667855 1.112877 -2.728344 3.938536 2.688650 12.666625 4.112100 0.437000 6.501700 -7.243684 3.591312 -2.535035 -84.184702 1.738779 11.773967 14.258056 -25.997444 -4.383513 -1.152787 -3.503310 8.395517 15.861261 24.889759 8.082200 -7.125000 0.000000 0.000000 -16.046800 58.849000 -5.521800 6.365084 -2.886249 -2.328872 74.994252 -14.968415 3.060980 -8.462894 13.713743 -1.297626 1.366041 -0.623132 22.926664 -16.202844 5.582094 -1.779200 7.125000 0.000000 0.000000 6.684700 -24.123600 3.391000 
2.367692 17.696808 -30.848452 4.044607 2.027388 0.642949 0.136265 2.646004 2.887715 -23.782940 -3.122185 8.086584 2.095075 9.288101 31.227998 1.661698 -4.815438 20.495685 1.154200 -6.821100 -19.186600 -2.066642 -2.204150 0.653554 17.534881 11.406643 -25.041825 -0.530571 -7.369104 20.665182 -0.212267 -5.078592 17.283297 -0.258500 -3.271000 9.034200 -7.244845 -5.111455 5.846713 2.869539 -7.787948 -3.270404 13.254684 -2.967321 -6.812098 -13.753112 2.091661 -2.155387 3.761993 4.083881 12.640524 4.224400 1.027100 6.206900 -7.164103 3.710297 -2.565028 -85.743503 3.234783 9.015697 14.410819 -26.284890 -4.536040 -1.122524 -3.323621 8.237572 15.631004 22.855663 7.399400 -7.125000 0.000000 0.000000 -14.950900 56.643000 -4.334200 6.455388 -2.908788 -2.342879 72.790617 -15.109593 5.674059 -8.227268 13.418625 -1.232304 1.381874 -0.672393 23.331909 -16.363434 5.817926 -1.884200 7.125000 0.000000 0.000000 6.532400 -23.843800 3.355200 
2.346066 17.712387 -30.629537 3.715433 1.924686 0.300087 0.130181 2.625682 2.889993 -23.252936 -3.213589 7.200319 2.541612 9.956343 33.414774 1.899344 -5.083316 23.502087 1.154000 -6.820600 -19.185000 -2.157723 -2.241668 0.725763 18.312895 11.276478 -24.447973 -0.658504 -7.613800 21.597730 -0.306480 -4.154971 16.656657 -0.272200 -3.356000 9.271500 -7.534266 -5.697822 6.454950 3.301763 -8.698516 -3.504298 14.862528 -3.225563 -7.422370 -14.858925 2.905454 -1.560763 3.611868 5.233344 12.602058 4.327600 1.502700 5.945400 -7.069935 3.810754 -2.623387 -87.405550 4.842113 7.020511 14.743638 -26.748885 -4.670541 -1.143583 -3.574823 7.608064 16.378979 25.424733 8.521500 -7.125000 0.000000 0.000000 -15.850800 59.551100 -5.719900 6.513789 -2.898160 -2.361931 70.718028 -15.341370 8.521873 -8.161379 13.415327 -1.234730 1.333277 -0.736845 22.688753 -15.986461 6.709450 -2.147900 7.125000 0.000000 0.000000 6.799600 -22.833500 3.653100 
2.322904 17.741186 -30.412876 3.288707 2.112770 -0.093053 0.150062 2.610518 2.881903 -22.575445 -3.539467 6.290912 2.978739 10.598135 35.612564 2.224402 -6.194486 26.041395 1.182900 -6.902500 -19.427000 -2.218847 -2.283891 0.787299 19.193340 10.861659 -23.651758 -0.770744 -7.773235 22.261214 -0.251921 -3.898038 15.755767 -0.211600 -2.961900 8.172700 -7.547436 -6.169475 7.036574 3.616849 -9.406141 -3.678777 15.950073 -3.417570 -7.970506 -15.654379 3.324256 -0.908752 3.466055 5.784510 12.580175 4.368700 1.711000 5.744800 -6.992471 3.893290 -2.672357 -88.632537 6.165287 5.763299 15.019892 -27.124333 -4.779734 -1.147393 -3.807098 6.733229 17.094826 27.774153 9.612000 -7.125000 0.000000 0.000000 -16.907800 62.203800 -7.182900 6.532592 -2.884720 -2.374355 69.315627 -15.642025 11.120912 -8.245120 13.626281 -1.278908 1.324695 -0.703200 21.578914 -15.738503 6.872560 -2.163000 7.125000 0.000000 0.000000 6.994500 -22.674000 3.785100 
2.297179 17.771420 -30.205644 2.852829 2.198850 -0.502585 0.224927 2.587985 2.804248 -22.007554 -3.859736 5.326316 3.488178 11.265189 37.861187 2.489177 -6.383147 28.825174 0.956100 -6.226600 -17.443400 -2.216732 -2.307020 0.805590 20.044368 10.379047 -22.650088 -0.840431 -7.833029 22.608441 -0.162058 -3.869896 14.855029 -0.164500 -2.612900 7.202700 -6.914641 -5.902619 7.205349 3.483549 -8.943218 -3.575771 15.192485 -3.247199 -8.045847 -15.164010 2.997583 -0.791358 3.575323 5.279726 12.646647 4.340100 1.497600 5.813100 -7.015192 3.883285 -2.667309 -88.241030 6.194505 6.489773 14.910168 -26.973644 -4.725441 -1.243895 -3.693778 6.516826 17.966048 26.375404 9.745600 -7.125000 0.000000 0.000000 -14.675000 60.995000 -5.790000 6.493741 -2.882814 -2.367364 70.216450 -15.742785 10.223079 -8.366116 13.793597 -1.313721 1.325553 -0.731600 21.759406 -15.901433 7.078489 -2.256400 7.125000 0.000000 0.000000 6.861400 -22.432100 3.750200 
2.274324 17.801039 -30.001589 2.301258 2.094183 -0.704701 0.367930 2.541557 2.636842 -21.456106 -4.062030 4.038496 4.091223 11.973429 40.234018 2.738546 -5.869775 31.630472 0.708200 -5.378600 -14.991500 -2.146157 -2.294821 0.778743 20.922194 9.993485 -21.658556 -0.834481 -7.774506 22.597793 -0.219448 -3.300238 14.366370 -0.107500 -2.114000 5.820900 -5.257649 -4.638677 6.805982 2.824026 -6.944753 -3.155474 12.129304 -2.571285 -7.452616 -13.071667 1.638820 -1.747784 3.821653 3.351711 12.714334 4.128000 0.710500 6.279300 -7.149947 3.725611 -2.609774 -85.957317 4.487162 10.520603 14.496074 -26.348166 -4.501606 -1.313679 -3.483598 6.341842 18.337879 23.913738 9.206200 -7.125000 0.000000 0.000000 -12.471800 58.477600 -4.152200 6.411088 -2.874191 -2.327702 73.851988 -15.218608 5.014936 -8.477442 13.832725 -1.329735 1.251167 -0.952161 23.003577 -16.057515 8.576317 -2.810400 7.125000 0.000000 0.000000 6.705100 -20.666100 3.933900 
2.250240 17.827994 -29.796919 1.468678 1.547552 -0.550742 0.640069 2.445059 2.295361 -20.729089 -3.806491 2.309662 4.758365 12.697504 42.621894 3.390596 -5.285193 36.959445 0.000500 0.146100 0.401500 -1.952345 -2.219464 0.624652 21.958766 10.051122 -20.774054 -0.785425 -7.684478 22.377680 -0.295070 -2.821613 14.163610 -0.080100 -1.825100 5.022600 -1.726067 -1.348056 6.377757 1.226774 -2.057266 -1.712325 5.180728 -0.844082 -3.417785 -8.154093 -2.268932 -10.882138 4.208089 -2.009469 13.642180 3.261600 -1.417900 9.308600 -7.525374 2.980024 -2.384034 -80.968563 -4.248084 19.274541 13.444470 -24.464250 -3.942018 -1.158927 -2.958480 7.883335 15.403783 18.963732 6.225600 -7.125000 0.000000 0.000000 -13.012900 52.416300 -2.408500 6.483032 -2.609724 -2.140476 82.142537 -9.414893 -7.885555 -8.890395 13.871060 -1.364183 1.254156 -0.832182 25.458659 -16.536624 6.197574 -2.068300 7.125000 0.000000 0.000000 6.424100 -23.291300 3.381000 
